<svg width="48" height="48" viewBox="0 0 48 48" fill="none" xmlns="http://www.w3.org/2000/svg">
<path d="M24 48C10.7339 48 0 37.2502 0 24C0 10.7339 10.7498 0 24 0C37.2661 0 48 10.7498 48 24C48.0159 37.2661 37.2661 48 24 48Z" fill="#FFD98E"/>
<mask id="mask0_275_856" style="mask-type:alpha" maskUnits="userSpaceOnUse" x="0" y="0" width="48" height="48">
<path d="M24 48C10.7339 48 0 37.2502 0 24C0 10.7339 10.7498 0 24 0C37.2661 0 48 10.7498 48 24C48.0159 37.2661 37.2661 48 24 48Z" fill="#F7C0B5"/>
</mask>
<g mask="url(#mask0_275_856)">
<path d="M37.5038 44.2093C37.3918 44.2893 37.2638 44.3693 37.1518 44.4493C37.0238 44.5293 36.9118 44.6093 36.7838 44.6733C36.6718 44.7373 36.5758 44.8013 36.4638 44.8653C36.4478 44.8813 36.4318 44.8813 36.4158 44.8973C36.0478 45.1213 35.6638 45.3293 35.2798 45.5213C35.1678 45.5853 35.0398 45.6493 34.9278 45.6973C34.9278 45.6973 34.9118 45.7133 34.8958 45.7133C34.7678 45.7773 34.6398 45.8413 34.5118 45.9053C34.2558 46.0333 33.9838 46.1453 33.7278 46.2573C33.5998 46.3213 33.4558 46.3693 33.3278 46.4173C33.1998 46.4653 33.0558 46.5293 32.9278 46.5773C32.7998 46.6253 32.6558 46.6893 32.5278 46.7373C32.5278 46.7373 32.5278 46.7373 32.5118 46.7373C32.3838 46.7853 32.2398 46.8333 32.1118 46.8813C31.8238 46.9773 31.5198 47.0733 31.2318 47.1693C31.1358 47.2013 31.0238 47.2333 30.9278 47.2653C30.6238 47.3613 30.3198 47.4413 30.0158 47.5053C29.9038 47.5373 29.7918 47.5533 29.6638 47.5853C29.3758 47.6493 29.0718 47.7133 28.7838 47.7773C28.7198 47.7933 28.6718 47.7933 28.6078 47.8093C28.5118 47.8253 28.3998 47.8413 28.3038 47.8573C28.1598 47.8733 28.0318 47.9053 27.8878 47.9213C27.8238 47.9373 27.7598 47.9373 27.6958 47.9533C27.6158 47.9693 27.5198 47.9853 27.4238 47.9853C27.1678 48.0173 26.8958 48.0493 26.6398 48.0813C26.5598 48.0973 26.4638 48.0973 26.3838 48.1133H26.3678C26.2558 48.1293 26.1438 48.1293 26.0318 48.1453C25.9198 48.1613 25.8078 48.1613 25.6958 48.1613C25.6318 48.1613 25.5518 48.1773 25.4878 48.1773C25.3598 48.1773 25.2478 48.1933 25.1358 48.1933C24.9758 48.1933 24.8318 48.2093 24.6718 48.2093C24.5118 48.2093 24.3678 48.2093 24.2078 48.2093C24.0958 48.2093 23.9838 48.2093 23.8718 48.2093C17.1358 48.1133 11.0558 45.2493 6.73585 40.7053C6.73585 40.7053 6.73585 40.6893 6.71985 40.6893C7.21585 39.7133 9.05585 37.9533 10.9758 36.4973C13.4078 34.6573 16.8478 33.5213 16.8478 33.5213C16.8478 33.5213 19.1038 33.1533 27.4718 34.8973C33.8558 36.2413 36.5758 41.6973 37.5038 44.2093Z" fill="#FEE4BF"/>
<path d="M29.2478 39.3294C28.9118 40.9774 26.7358 41.9534 23.0718 40.4814C18.5759 38.6574 16.8479 33.5214 16.8479 33.5214C16.6079 29.8414 16.0479 26.6894 16.0479 26.6894C21.2478 26.2414 27.3918 32.3214 27.3918 32.3214L28.0958 35.3294C28.1598 35.5854 28.2878 35.8094 28.4798 35.9694C28.8158 36.5454 29.4718 38.2734 29.2478 39.3294Z" fill="#FEE4BF"/>
<path d="M28.4798 35.9853C25.4238 35.8253 23.1678 35.3773 20.7518 31.0413C22.7998 32.8493 25.2158 33.5373 27.7598 33.8573L28.0958 35.3293C28.1598 35.6013 28.2878 35.8253 28.4798 35.9853Z" fill="#EFBDA5"/>
<path d="M34.7998 16.7053C35.0878 18.0493 35.2318 19.1373 34.4478 22.7213C33.6639 26.3053 35.1678 29.8893 31.3918 33.1693C28.8478 35.3773 24.3999 35.7933 20.8479 33.3773C19.6479 32.5613 18.5439 31.4253 17.6479 29.9373C16.9439 28.7693 16.1279 27.6653 15.2159 26.6573C13.9519 25.2813 12.4319 22.5133 13.1839 17.6173C14.3999 9.64927 22.2879 8.73727 26.9439 9.61727C31.5998 10.4973 34.0158 13.1533 34.7998 16.7053Z" fill="#FEE4BF"/>
<path d="M19.4879 22.9613C19.4879 22.9613 18.9919 20.5613 16.6559 20.8493C14.6399 21.1053 13.9359 25.9373 18.5119 27.2813" fill="#FEE4BF"/>
<path d="M18.3679 25.0893C18.3679 25.0893 17.7919 24.7213 17.8559 24.0813C17.9519 23.3293 17.8559 22.8653 17.5039 22.7213C16.6239 22.3533 16.4479 23.3773 16.4799 23.5053" stroke="#423232" stroke-width="0.48" stroke-miterlimit="10" stroke-linecap="round" stroke-linejoin="round"/>
<path d="M30.5759 26.6413C30.5759 26.6413 31.1839 26.6733 31.7599 25.9853C32.0799 25.6013 32.3519 25.1213 32.1759 24.9773C31.9999 24.8173 29.1039 25.2653 28.9119 25.6493C28.7199 26.0333 29.8399 26.6413 30.5759 26.6413Z" fill="#EFBDA5"/>
<path d="M31.0559 21.2654C31.0559 21.2654 31.0879 22.7854 32.0639 24.4814C32.4959 25.2334 31.8399 26.4654 30.4159 26.6734" stroke="#423232" stroke-width="0.48" stroke-miterlimit="10" stroke-linecap="round" stroke-linejoin="round"/>
<path opacity="0.42" d="M22.384 27.4573C23.2941 27.4573 24.032 26.8484 24.032 26.0973C24.032 25.3462 23.2941 24.7373 22.384 24.7373C21.4738 24.7373 20.736 25.3462 20.736 26.0973C20.736 26.8484 21.4738 27.4573 22.384 27.4573Z" fill="#F2A5B2"/>
<path opacity="0.42" d="M34.1919 24.7693C34.1439 25.6653 34.1599 26.5453 34.0959 27.4253C33.3919 27.2653 32.8799 26.7373 32.8799 26.1133C32.8799 25.4413 33.4399 24.8973 34.1919 24.7693Z" fill="#F2A5B2"/>
<path d="M33.5199 38.0159C33.5199 38.0159 31.0399 35.6959 28.5919 35.1359C28.5919 35.1359 28.8799 39.2639 25.9679 38.9599C21.2639 38.4639 16.8319 33.4719 16.8319 33.4719C16.8319 33.4719 13.7439 34.3359 11.2479 36.2399C11.2479 36.2399 11.5839 41.1519 17.1999 43.5839C22.8159 46.0159 30.6399 44.8159 32.4959 43.2479C34.3519 41.6799 33.9839 38.5279 33.5199 38.0159Z" fill="white"/>
<path d="M9.87196 37.2959C9.87196 37.2959 6.76797 39.0079 5.07197 43.8879C3.37597 48.7679 3.42397 56.0319 3.42397 56.0319H39.936C39.936 56.0319 38.912 44.0479 35.296 40.0479C35.296 40.0479 35.536 43.6319 28.448 43.9999C21.36 44.3679 12.832 42.1119 12.624 40.7999C12.432 39.4559 9.87196 37.2959 9.87196 37.2959Z" fill="white"/>
<path d="M36.7839 56.3198C26.7359 60.9598 10.1919 56.7678 10.1919 56.7678C10.1919 56.7678 9.85595 52.6878 11.0719 45.3438C11.1199 45.0078 11.1679 44.6718 11.1999 44.3678C11.5519 41.0398 10.7359 38.7518 9.87195 37.3118C9.87195 36.9438 10.2559 36.6878 10.6879 36.3198C10.8639 36.1758 14.0159 34.2238 14.1439 34.3198C14.3679 34.6398 14.5759 34.9598 14.7519 35.2958C16.5439 38.6078 17.1679 42.1598 20.8959 42.6718C24.5759 43.1838 28.1279 43.1038 30.6719 42.5438C33.1199 41.9998 31.4879 37.9358 30.3999 35.9358C30.3519 35.8558 30.3519 35.8238 30.3039 35.7918C30.6719 35.5518 34.9439 38.8318 35.2799 40.0478C35.9839 41.8078 36.1759 43.1198 36.3839 44.8318C37.0719 50.4478 36.7839 56.3198 36.7839 56.3198Z" fill="#77A0E0"/>
<path d="M14.8159 42.5598C15.3814 42.5598 15.8399 42.1014 15.8399 41.5358C15.8399 40.9703 15.3814 40.5118 14.8159 40.5118C14.2503 40.5118 13.7919 40.9703 13.7919 41.5358C13.7919 42.1014 14.2503 42.5598 14.8159 42.5598Z" fill="#647184"/>
<path d="M33.9039 42.9919C34.4165 42.9919 34.832 42.5764 34.832 42.0639C34.832 41.5513 34.4165 41.1359 33.9039 41.1359C33.3914 41.1359 32.976 41.5513 32.976 42.0639C32.976 42.5764 33.3914 42.9919 33.9039 42.9919Z" fill="#647184"/>
<path d="M21.9679 44.4478C24.3999 44.5918 27.4399 44.6398 29.9839 44.2718C31.6959 44.0318 33.2479 45.2958 33.3759 47.0078C33.4879 48.7038 33.5359 50.7678 33.2639 52.5758C32.7039 56.4798 18.7359 56.2878 18.5119 52.8478C18.3839 51.0718 18.2719 49.6318 18.1439 48.4478C17.9039 46.2238 19.7279 44.3198 21.9679 44.4478Z" stroke="#647184" stroke-width="0.48" stroke-miterlimit="10"/>
<path d="M26.6239 38.9439C26.6239 38.9439 23.6959 42.4959 22.7999 42.2239C21.9039 41.9519 16.3359 38.9919 15.4559 33.9359C15.4559 33.9359 16.1439 32.8159 16.7519 32.4639C16.7519 32.4639 18.4319 35.4239 21.4719 37.1999C24.3679 38.8799 26.6239 38.9439 26.6239 38.9439Z" fill="white"/>
<path d="M26.6239 38.9439C26.6239 38.9439 23.6959 42.4959 22.7999 42.2239C21.9039 41.9519 16.3359 38.9919 15.4559 33.9359" stroke="#D0D6DD" stroke-width="0.48" stroke-miterlimit="10" stroke-linecap="round" stroke-linejoin="round"/>
<path d="M26.6239 38.9439C26.6239 38.9439 28.8959 41.5999 29.6479 41.6319C30.3999 41.6639 30.7199 36.9919 28.4639 34.6239C28.4639 34.6239 28.1119 34.7199 27.9679 34.7519C27.9519 34.7359 29.0879 38.1439 26.6239 38.9439Z" fill="white"/>
<path d="M26.6239 38.9439C26.6239 38.9439 28.8959 41.5999 29.6479 41.6319C30.3999 41.6639 30.7199 36.9919 28.4639 34.6239" stroke="#D0D6DD" stroke-width="0.48" stroke-miterlimit="10" stroke-linecap="round" stroke-linejoin="round"/>
<path d="M26.3999 39.1998C26.3999 39.1998 25.9519 39.6958 26.1119 40.7838C26.2719 41.8558 26.2399 42.9278 26.2399 42.9278" stroke="#D0D6DD" stroke-width="0.48" stroke-miterlimit="10" stroke-linecap="round" stroke-linejoin="round"/>
<path d="M27.2159 41.5999C27.4191 41.5999 27.5839 41.4351 27.5839 41.2319C27.5839 41.0286 27.4191 40.8639 27.2159 40.8639C27.0127 40.8639 26.8479 41.0286 26.8479 41.2319C26.8479 41.4351 27.0127 41.5999 27.2159 41.5999Z" fill="#D0D6DD"/>
<path d="M25.3164 22.9729C24.9324 22.9569 24.6444 22.6369 24.6764 22.2529L24.6924 21.8049C24.7084 21.4209 25.0284 21.1329 25.4124 21.1649C25.7964 21.1809 26.0844 21.5009 26.0524 21.8849L26.0364 22.3329C26.0204 22.7009 25.7004 22.9889 25.3164 22.9729Z" fill="#423232"/>
<path d="M32.0523 23.2129C31.7003 23.1969 31.4283 22.8929 31.4443 22.5409L31.4603 22.1249C31.4763 21.7729 31.7803 21.5009 32.1323 21.5169C32.4843 21.5329 32.7563 21.8369 32.7403 22.1889L32.7243 22.6049C32.7083 22.9569 32.4043 23.2289 32.0523 23.2129Z" fill="#423232"/>
<path d="M26.8684 22.0449C26.8684 22.0449 26.4524 21.4529 25.7324 21.3409C25.1404 21.2449 24.4844 21.5329 24.3884 21.8689" stroke="#423232" stroke-width="0.48" stroke-miterlimit="10" stroke-linecap="round" stroke-linejoin="round"/>
<path d="M31.5884 22.1889C31.5884 22.1889 31.5884 21.6769 32.3244 21.6769C32.9324 21.6769 33.1884 22.2369 33.1884 22.2369" stroke="#423232" stroke-width="0.48" stroke-miterlimit="10" stroke-linecap="round" stroke-linejoin="round"/>
<path d="M27.7804 19.2609C28.1324 19.2289 28.3084 18.8129 28.1164 18.4929C28.0044 18.3329 27.8604 18.1889 27.6524 18.1089C27.0444 17.9169 25.0604 18.3489 24.1964 19.3409C23.4284 20.2529 26.1804 19.4049 27.7804 19.2609Z" fill="#423232"/>
<path d="M32.0044 19.5168C31.7324 19.4368 31.6524 19.0368 31.8764 18.7808C31.9884 18.6528 32.1484 18.5408 32.3244 18.5088C32.8684 18.4128 34.1164 18.9088 34.4684 19.8528C34.7884 20.6688 33.3004 19.8368 32.0044 19.5168Z" fill="#423232"/>
<path d="M29.306 28.4588C28.394 29.0028 26.778 28.4108 26.026 27.4988" stroke="#423232" stroke-width="0.48" stroke-miterlimit="10" stroke-linecap="round" stroke-linejoin="round"/>
<path d="M38.8595 34.5264C37.9635 32.5424 37.2755 32.8144 37.8995 31.0224C38.5235 29.2464 37.7235 27.9824 36.0755 26.3024C34.5075 24.7024 34.3475 22.9584 34.3955 22.7024C34.2515 23.3744 34.1875 24.0624 34.1555 24.7344C34.1075 25.6304 34.1235 26.5104 34.0595 27.3904C33.9315 29.3584 33.4675 31.2944 31.3555 33.1184C30.4275 33.9184 29.2435 34.4944 27.9315 34.7664C27.5795 35.8384 28.1075 36.6064 29.2595 36.7344C30.4115 36.8624 30.8915 38.5904 33.4995 39.4064C37.4035 40.6704 39.7555 36.5104 38.8595 34.5264Z" fill="#423232"/>
<path d="M31.5635 15.1664C31.8995 15.3424 32.1875 15.1824 32.3635 14.8304C34.2195 14.5424 34.6515 18.2544 34.7155 18.4784C34.7795 18.7184 34.8115 19.3904 34.6835 21.2304C34.6035 22.2544 40.5555 14.9904 35.1155 11.9184C35.5155 11.3264 35.2275 8.38244 31.8835 7.66244C30.6835 7.40644 29.1155 8.52644 27.1475 8.09444C19.4515 6.38244 11.4675 8.01444 12.0915 18.1744C12.2355 20.3984 12.3795 22.7984 8.60353 24.3984C4.21953 26.2544 4.44353 31.1024 7.53153 32.0944C8.81153 32.5104 4.58753 35.3904 7.05153 37.9504C8.33153 39.2944 10.6195 36.5744 12.9395 38.0464C16.4435 40.2704 18.1875 39.2624 18.8755 38.3824C20.2835 36.5904 18.5395 32.9904 18.5395 32.9904C18.5395 32.9904 19.2275 31.8864 19.4515 31.2944C20.5395 28.3824 17.9475 27.0704 17.9475 27.0704C13.9475 25.5344 14.6675 21.0704 16.6195 20.8144C18.6675 20.5584 19.3075 22.3824 19.4195 22.8304C19.4195 22.8304 21.2275 25.3264 24.7155 19.6304C28.1715 13.9344 30.0595 14.3504 31.5635 15.1664Z" fill="#423232"/>
<path d="M27.6638 24.7041H23.9358C22.9598 24.7041 22.1758 23.9201 22.1758 22.9441V21.4241C22.1758 20.4481 22.9598 19.6641 23.9358 19.6641H27.6638C28.6398 19.6641 29.4238 20.4481 29.4238 21.4241V22.9441C29.4238 23.9201 28.6238 24.7041 27.6638 24.7041Z" stroke="#423232" stroke-width="0.48" stroke-miterlimit="10" stroke-linecap="round" stroke-linejoin="round"/>
<path d="M34.0955 19.6641H32.2555C31.6155 19.6641 31.0875 20.1921 31.0875 20.8321V22.2241C31.3115 23.0241 31.6315 23.7921 32.1115 24.4801C32.1595 24.4801 32.2075 24.4961 32.2555 24.4961H34.0955C34.7355 24.4961 35.2635 23.9681 35.2635 23.3281V20.8321C35.2795 20.1761 34.7515 19.6641 34.0955 19.6641Z" stroke="#423232" stroke-width="0.48" stroke-miterlimit="10" stroke-linecap="round" stroke-linejoin="round"/>
<path d="M29.4243 21.1196C29.9683 21.0556 30.6563 21.0076 31.2323 21.0716" stroke="#423232" stroke-width="0.48" stroke-miterlimit="10" stroke-linecap="round" stroke-linejoin="round"/>
<path d="M22.1761 21.2319L18.4641 21.3599" stroke="#423232" stroke-width="0.48" stroke-miterlimit="10" stroke-linecap="round" stroke-linejoin="round"/>
</g>
</svg>
