<svg width="unset" height="unset" viewBox="0 0 41 41" fill="none" xmlns="http://www.w3.org/2000/svg">
<path d="M20.5 41C9.16854 41 0 31.8178 0 20.5C0 9.16854 9.18215 0 20.5 0C31.8314 0 41 9.18215 41 20.5C41.0136 31.8314 31.8314 41 20.5 41Z" fill="#FFD98E"/>
<mask id="mask0_159_1045" style="mask-type:alpha" maskUnits="userSpaceOnUse" x="0" y="0" width="41" height="41">
<path d="M20.5 41C9.16854 41 0 31.8178 0 20.5C0 9.16854 9.18215 0 20.5 0C31.8314 0 41 9.18215 41 20.5C41.0136 31.8314 31.8314 41 20.5 41Z" fill="#F7C0B5"/>
</mask>
<g mask="url(#mask0_159_1045)">
<path d="M31.98 37.762C31.8843 37.8303 31.775 37.8987 31.6793 37.967C31.57 38.0353 31.4743 38.1037 31.365 38.1583C31.2693 38.213 31.1873 38.2677 31.0916 38.3223C31.078 38.336 31.0643 38.336 31.0506 38.3497C30.7363 38.541 30.4083 38.7187 30.0803 38.8827C29.9846 38.9373 29.8753 38.992 29.7796 39.033C29.7796 39.033 29.766 39.0467 29.7523 39.0467C29.643 39.1013 29.5336 39.156 29.4243 39.2107C29.2056 39.32 28.9733 39.4157 28.7546 39.5113C28.6453 39.566 28.5223 39.607 28.413 39.648C28.3036 39.689 28.1806 39.7437 28.0713 39.7847C27.962 39.8257 27.839 39.8803 27.7296 39.9213C27.7296 39.9213 27.7296 39.9213 27.716 39.9213C27.6066 39.9623 27.4836 40.0033 27.3743 40.0443C27.1283 40.1263 26.8686 40.2083 26.6226 40.2903C26.5406 40.3177 26.445 40.345 26.363 40.3723C26.1033 40.4543 25.8436 40.5227 25.584 40.5773C25.4883 40.6047 25.3926 40.6183 25.2833 40.6457C25.0373 40.7003 24.7776 40.755 24.5316 40.8097C24.477 40.8233 24.436 40.8233 24.3813 40.837C24.2993 40.8507 24.2036 40.8643 24.1216 40.878C23.9986 40.8917 23.8893 40.919 23.7663 40.9327C23.7116 40.9463 23.657 40.9463 23.6023 40.96C23.534 40.9737 23.452 40.9873 23.37 40.9873C23.1513 41.0147 22.919 41.042 22.7003 41.0693C22.632 41.083 22.55 41.083 22.4816 41.0967H22.468C22.3723 41.1103 22.2766 41.1103 22.181 41.124C22.0853 41.1377 21.9896 41.1377 21.894 41.1377C21.8393 41.1377 21.771 41.1513 21.7163 41.1513C21.607 41.1513 21.5113 41.165 21.4156 41.165C21.279 41.165 21.156 41.1787 21.0193 41.1787C20.8826 41.1787 20.7596 41.1787 20.623 41.1787C20.5273 41.1787 20.4316 41.1787 20.336 41.1787C14.5823 41.0967 9.38897 38.6503 5.69897 34.769C5.69897 34.769 5.69897 34.7553 5.6853 34.7553C6.10897 33.9217 7.68064 32.4183 9.32064 31.1747C11.398 29.603 14.3363 28.6327 14.3363 28.6327C14.3363 28.6327 16.2633 28.3183 23.411 29.808C28.864 30.956 31.1873 35.6163 31.98 37.762Z" fill="#F7D3B5"/>
<path d="M24.928 33.5937C24.641 35.0013 22.7823 35.835 19.6526 34.5777C15.8123 33.0197 14.3363 28.6327 14.3363 28.6327C14.1313 25.4893 13.653 22.797 13.653 22.797C18.0946 22.4143 23.3426 27.6077 23.3426 27.6077L23.944 30.177C23.9986 30.3957 24.108 30.587 24.272 30.7237C24.559 31.2157 25.1193 32.6917 24.928 33.5937Z" fill="#F7D3B5"/>
<path d="M24.2719 30.7373C21.6616 30.6007 19.7346 30.218 17.6709 26.5143C19.4202 28.0587 21.4839 28.6463 23.6569 28.9197L23.9439 30.177C23.9986 30.4093 24.1079 30.6007 24.2719 30.7373Z" fill="#EFBDA5"/>
<path d="M29.6703 14.269C29.9163 15.417 30.0393 16.3463 29.3697 19.4077C28.7 22.469 29.9847 25.5303 26.7593 28.332C24.5863 30.218 20.787 30.5733 17.753 28.5097C16.728 27.8127 15.785 26.8423 15.0197 25.5713C14.4183 24.5737 13.7213 23.6307 12.9423 22.7697C11.8627 21.5943 10.5643 19.23 11.2067 15.048C12.2453 8.242 18.983 7.463 22.96 8.21467C26.937 8.96633 29.0007 11.235 29.6703 14.269Z" fill="#F7D3B5"/>
<path d="M16.5913 19.6127C16.5913 19.6127 16.1676 17.5627 14.1723 17.8087C12.4503 18.0273 11.849 22.1547 15.7576 23.3027" fill="#F7D3B5"/>
<path d="M15.6347 21.4303C15.6347 21.4303 15.1427 21.116 15.1974 20.5693C15.2794 19.927 15.1974 19.5307 14.8967 19.4077C14.145 19.0933 13.9947 19.968 14.022 20.0773" stroke="#423232" stroke-width="0.52" stroke-miterlimit="10" stroke-linecap="round" stroke-linejoin="round"/>
<path d="M26.0623 22.756C26.0623 22.756 26.5816 22.7833 27.0736 22.1957C27.3469 21.8677 27.5793 21.4577 27.4289 21.3347C27.2786 21.198 24.8049 21.5807 24.6409 21.9087C24.4769 22.2367 25.4336 22.756 26.0623 22.756Z" fill="#EFBDA5"/>
<path d="M26.4723 18.164C26.4723 18.164 26.4997 19.4623 27.3333 20.911C27.7023 21.5533 27.142 22.6057 25.9257 22.7833" stroke="#423232" stroke-width="0.52" stroke-miterlimit="10" stroke-linecap="round" stroke-linejoin="round"/>
<path opacity="0.42" d="M19.065 23.453C19.8424 23.453 20.4727 22.9329 20.4727 22.2913C20.4727 21.6498 19.8424 21.1297 19.065 21.1297C18.2876 21.1297 17.6573 21.6498 17.6573 22.2913C17.6573 22.9329 18.2876 23.453 19.065 23.453Z" fill="#ED938A"/>
<path opacity="0.42" d="M29.1509 21.157C29.1099 21.9223 29.1236 22.674 29.0689 23.4257C28.4676 23.289 28.0303 22.838 28.0303 22.305C28.0303 21.731 28.5086 21.2663 29.1509 21.157Z" fill="#ED938A"/>
<path d="M33.3608 35.2161C31.4201 32.7151 28.4135 31.6764 26.7598 31.0614C26.6231 30.378 26.3635 29.6264 25.9535 28.9021C25.3248 29.2847 24.6005 29.5717 23.8488 29.7221L23.9581 30.173C24.0128 30.3917 24.2861 31.403 23.8625 32.7014C23.5071 33.7947 22.0721 34.2867 19.6395 33.1797C14.8971 31.034 14.3505 28.615 14.3505 28.615C14.2685 27.303 14.1318 26.073 14.0088 25.0754C12.5328 25.4034 10.8245 26.0731 9.89513 27.4807C8.74713 29.2027 8.32347 30.9521 8.4328 32.3461C6.43747 33.6171 3.3488 35.5441 2.33747 38.9881C1.02547 43.4707 1.24414 46.2177 1.24414 46.2177H36.5588C36.5178 46.2314 35.9985 38.6191 33.3608 35.2161Z" fill="#6060D8"/>
<path d="M12.2458 30.7334C12.2458 30.7334 13.0795 33.9724 16.7285 36.2137" stroke="#423232" stroke-width="0.52" stroke-miterlimit="10" stroke-linecap="round" stroke-linejoin="round"/>
<path d="M26.7461 31.0614C26.7461 31.0614 27.7165 35.2571 25.5981 37.1841" stroke="#423232" stroke-width="0.52" stroke-miterlimit="10" stroke-linecap="round" stroke-linejoin="round"/>
<path d="M20.1589 36.5417C20.1589 36.5417 19.4482 38.6191 19.6395 40.0541" stroke="#423232" stroke-width="0.52" stroke-miterlimit="10" stroke-linecap="round" stroke-linejoin="round"/>
<path d="M24.5186 36.4187C24.5186 36.4187 25.0516 37.5804 25.4342 39.4254" stroke="#423232" stroke-width="0.52" stroke-miterlimit="10" stroke-linecap="round" stroke-linejoin="round"/>
<path d="M8.40552 32.3597C8.40552 32.3597 9.52618 36.9244 16.1955 38.2637" stroke="#423232" stroke-width="0.52" stroke-miterlimit="10" stroke-linecap="round" stroke-linejoin="round"/>
<path d="M19.7625 40.3684L19.1612 40.3137C18.9425 40.2864 18.7785 40.0814 18.8195 39.8627L19.0245 38.8377C19.0792 38.5507 19.3525 38.3457 19.6395 38.3867C19.9265 38.4141 20.1589 38.6601 20.1589 38.9607L20.1725 40.0131C20.1725 40.2181 19.9812 40.3957 19.7625 40.3684Z" fill="white"/>
<path d="M26.0355 39.7397L25.4615 39.9447C25.2428 40.0267 25.0105 39.89 24.9695 39.6714L24.7235 38.66C24.6552 38.373 24.8055 38.086 25.0925 37.9767C25.3658 37.881 25.6802 38.004 25.8032 38.2637L26.2542 39.2067C26.3498 39.4117 26.2542 39.6577 26.0355 39.7397Z" fill="white"/>
<path d="M32.0625 39.4254C32.0625 39.4254 32.8278 43.7167 32.5272 46.2314" stroke="#544D4D" stroke-width="0.52" stroke-miterlimit="10" stroke-linecap="round" stroke-linejoin="round"/>
<path d="M21.5706 19.5362C21.2426 19.5225 20.9966 19.2492 21.0239 18.9212L21.0376 18.5385C21.0513 18.2105 21.3246 17.9645 21.6526 17.9918C21.9806 18.0055 22.2266 18.2788 22.1993 18.6068L22.1856 18.9895C22.1719 19.3038 21.8986 19.5498 21.5706 19.5362Z" fill="#423232"/>
<path d="M27.3242 19.7412C27.0236 19.7275 26.7912 19.4678 26.8049 19.1672L26.8186 18.8118C26.8322 18.5112 27.0919 18.2788 27.3926 18.2925C27.6932 18.3062 27.9256 18.5658 27.9119 18.8665L27.8982 19.2218C27.8846 19.5225 27.6249 19.7548 27.3242 19.7412Z" fill="#423232"/>
<path d="M22.8962 18.7435C22.8962 18.7435 22.5408 18.2378 21.9258 18.1422C21.4202 18.0602 20.8598 18.3062 20.7778 18.5932" stroke="#423232" stroke-width="0.52" stroke-miterlimit="10" stroke-linecap="round" stroke-linejoin="round"/>
<path d="M26.9279 18.8665C26.9279 18.8665 26.9279 18.4292 27.5565 18.4292C28.0759 18.4292 28.2945 18.9075 28.2945 18.9075" stroke="#423232" stroke-width="0.52" stroke-miterlimit="10" stroke-linecap="round" stroke-linejoin="round"/>
<path d="M23.4565 16.5432C23.7435 16.6388 24.0305 16.3792 23.9758 16.0648C23.9485 15.9008 23.8801 15.7368 23.7435 15.6138C23.3335 15.2448 21.6388 14.9168 20.6138 15.3952C19.7118 15.8325 22.1445 16.1058 23.4565 16.5432Z" fill="#423232"/>
<path d="M27.5428 16.7618C27.3105 16.8438 27.0645 16.5978 27.1055 16.3108C27.1191 16.1605 27.1738 16.0102 27.2831 15.9008C27.6111 15.5728 28.7318 15.3132 29.4425 15.8188C30.0575 16.2425 28.6088 16.3655 27.5428 16.7618Z" fill="#423232"/>
<path d="M25.9303 24.5287C24.9423 25.118 23.1916 24.4767 22.377 23.4887" stroke="#423232" stroke-width="0.52" stroke-miterlimit="10" stroke-linecap="round" stroke-linejoin="round"/>
<path d="M24.1643 29.6355C25.162 29.3759 26.0503 28.9249 26.7747 28.2962C30 25.5082 28.7153 22.4332 29.385 19.3719C29.6037 18.3879 29.7267 17.6225 29.8087 17.0075C29.6993 16.9939 29.5763 16.9802 29.4533 16.9529C28.9613 16.8845 28.6333 16.4335 28.688 15.9415C28.7153 15.7365 28.729 15.5315 28.7427 15.3129C28.688 15.2992 28.7017 15.2992 28.647 15.2992C28.565 15.5589 28.4693 15.8322 28.401 16.0919C28.278 16.5019 27.8817 16.7615 27.4717 16.7342H27.458C26.9797 16.6932 26.6243 16.2969 26.6243 15.8185C26.638 15.4769 26.638 15.1352 26.6517 14.7935C26.597 14.7799 26.6243 14.7935 26.5697 14.7799C26.5013 15.1352 26.433 15.4905 26.3647 15.8595C26.2827 16.3105 25.8863 16.6249 25.4353 16.5975C24.26 16.5429 23.0983 16.5292 22.046 16.5292C21.5813 16.5292 21.1987 16.1875 21.1577 15.7229C21.0893 15.1215 20.9937 14.5202 20.8297 13.9052C20.652 14.4519 20.652 15.0259 20.6793 15.6135C20.7067 16.1192 20.3103 16.5429 19.8047 16.5565C18.5883 16.5839 17.7683 16.6249 17.6317 16.6385C17.6727 18.5109 17.249 20.5882 16.4973 19.1805C16.4427 19.0849 16.4017 18.9892 16.347 18.8662C16.0327 18.3059 15.404 17.6362 14.215 17.7865C12.5477 18.0052 11.9327 21.8729 15.4313 23.1575C15.445 23.4445 15.5133 23.7315 15.6363 24.0322C16.1693 25.3305 16.4017 26.4102 16.4017 27.2985C16.4017 32.4509 7.96933 30.3052 5.59133 25.6312C4.67566 23.8135 4.66199 21.6269 6.39766 19.3309C10.648 14.1239 9.37699 16.1055 10.32 13.0169C11.8643 7.9602 15.3903 6.34753 20.0643 6.38853C20.0643 6.38853 27.8407 6.38853 29.9043 8.27453C31.968 10.1605 31.2573 16.0509 31.0797 16.5839C31.025 16.7479 30.8883 16.8435 30.738 16.9119C30.656 19.6042 30.9293 20.5472 31.886 22.7202C33.977 27.5035 30.0273 32.0545 24.1643 29.6355Z" fill="#423232"/>
<path d="M16.4974 19.1942C16.4427 19.0985 16.4017 19.0028 16.347 18.8798C16.4017 18.9892 16.4564 19.0985 16.4974 19.1942Z" fill="#FEE4BF"/>
<path d="M15.0489 20.0624C15.0489 20.0624 13.9556 19.8984 14.0376 21.4291C14.0786 22.2081 14.0786 22.6318 14.0649 22.8504C14.0513 23.0008 14.1469 23.1374 14.2836 23.1921C14.4476 23.2604 14.6253 23.1921 14.7073 23.0281C14.8303 22.8094 14.9669 22.5088 14.9669 22.2628C14.9669 21.8528 15.4043 21.4838 15.4043 21.4838C15.4043 21.4838 15.0079 21.1421 15.0489 20.0624Z" fill="white"/>
<path d="M18.3563 46.4118C18.2469 46.2888 13.9556 38.9498 14.5979 36.1891C15.0353 34.2895 14.4613 32.1028 13.9556 30.1758C13.7506 29.3831 13.5593 28.6451 13.4499 27.9891C13.2586 26.8548 13.3953 25.7751 13.8599 24.7774C14.3656 23.6568 14.2836 22.6864 14.2836 22.6728L14.5569 22.6454C14.5569 22.6864 14.6389 23.7114 14.1059 24.8868C13.6686 25.8298 13.5456 26.8684 13.7233 27.9481C13.8326 28.5905 14.0239 29.3285 14.2289 30.1211C14.7483 32.0755 15.3223 34.3031 14.8713 36.2711C14.2699 38.8951 18.5476 46.2341 18.5749 46.2615L18.3563 46.4118Z" fill="white"/>
<path d="M14.0786 22.2218C14.0922 22.5224 14.0786 22.7274 14.0786 22.8504C14.0649 23.0008 14.1606 23.1374 14.2972 23.1921C14.4612 23.2604 14.6389 23.1921 14.7209 23.0281C14.8439 22.8094 14.9806 22.5088 14.9806 22.2628C14.9806 22.2491 14.9806 22.2218 14.9806 22.2081C14.6936 22.3174 14.3656 22.3994 14.0786 22.2218Z" fill="#E5E5E5"/>
<path d="M26.9389 31.3101C26.8432 31.9388 26.8296 32.9364 26.8022 34.0981C26.7612 36.3394 25.4356 45.0725 24.7932 46.4528L24.5472 46.3435C25.1622 45.0041 26.4879 36.3121 26.5289 34.0981C26.5562 32.9364 26.5699 31.9251 26.6656 31.2691C26.8706 29.8888 26.7202 28.8501 26.6382 28.4128C26.6792 28.3718 26.7202 28.3444 26.7612 28.3034C26.8022 28.2761 26.8296 28.2351 26.8706 28.2078C26.9526 28.5631 27.1849 29.6974 26.9389 31.3101Z" fill="white"/>
</g>
</svg>
